# xmcd
#
# Track frame offsets:
#	150
#	18790
#	33308
#	50888
#	66556
#	85619
#	99624
#	115949
#	130455
#	145328
#	155066
#	171038
#
# Disc length: 2399 seconds
#
# Revision: 1
# Processed by: cddbd v1.5.2PL0 Copyright (c) Steve Scherf et al.
# Submitted via: audiograbber 1.83.01
#
DISCID=a8095d0c
DTITLE=The Kentucky Headhunters - On Safari
DYEAR=2016
DGENRE=Country
TTITLE0=Beaver Creek Mansion
TTITLE1=Deep South Blues Again
TTITLE2=I Am the Hunter
TTITLE3=Caught in a Dream
TTITLE4=Crazy Jim
TTITLE5=Big Time
TTITLE6=Lowdown Memphis Town Blues
TTITLE7=Rainbow Shine
TTITLE8=Way Down Yonder
TTITLE9=Jukebox Full of Blues
TTITLE10=God Loves a Rolling Stone
TTITLE11=Governors Cup
EXTD=
EXTT0=
EXTT1=
EXTT2=
EXTT3=
EXTT4=
EXTT5=
EXTT6=
EXTT7=
EXTT8=
EXTT9=
EXTT10=
EXTT11=
PLAYORDER=
